<svg width="16" height="17" viewBox="0 0 16 17" fill="none" xmlns="http://www.w3.org/2000/svg">
<g clip-path="url(#clip0)">
<path d="M15.941 8.36044C15.815 8.17799 12.7869 3.90491 8.00021 3.90491C3.8928 3.90491 0.23274 8.15346 0.0787376 8.33457C-0.0259203 8.45797 -0.0259203 8.63908 0.0787376 8.76313C0.23274 8.94424 3.8928 13.1928 8.00021 13.1928C12.1076 13.1928 15.7676 8.94424 15.9216 8.76313C16.0183 8.64903 16.027 8.48384 15.941 8.36044ZM8.00021 12.5294C4.7075 12.5294 1.57676 9.40468 0.781436 8.54887C1.57545 7.6924 4.70284 4.56835 8.00021 4.56835C11.8529 4.56835 14.5723 7.68842 15.2363 8.53095C14.4696 9.35955 11.3209 12.5294 8.00021 12.5294Z" fill="black"/>
<path d="M7.99996 5.89514C6.52927 5.89514 5.33325 7.08532 5.33325 8.54882C5.33325 10.0123 6.52927 11.2025 7.99996 11.2025C9.47064 11.2025 10.6667 10.0123 10.6667 8.54882C10.6667 7.08532 9.47064 5.89514 7.99996 5.89514ZM7.99996 10.5391C6.89728 10.5391 5.99992 9.64614 5.99992 8.54885C5.99992 7.45156 6.89728 6.55858 7.99996 6.55858C9.10263 6.55858 9.99999 7.45156 9.99999 8.54885C9.99999 9.64614 9.10263 10.5391 7.99996 10.5391Z" fill="black"/>
</g>
<defs>
<clipPath id="clip0">
<rect width="16" height="15.9218" fill="white" transform="translate(0 0.587891)"/>
</clipPath>
</defs>
</svg>
