<svg width="16" height="17" viewBox="0 0 16 17" fill="none" xmlns="http://www.w3.org/2000/svg">
<path d="M8 1.52079C9.838 1.52079 11.3333 3.00882 11.3333 4.8385C11.3333 6.66686 9.838 8.15555 8 8.15555C6.162 8.15555 4.66667 6.66686 4.66667 4.8385C4.66667 3.00882 6.162 1.52079 8 1.52079ZM8 0.19397C5.42267 0.19397 3.33333 2.27309 3.33333 4.8385C3.33333 7.40258 5.42267 9.48237 8 9.48237C10.5773 9.48237 12.6667 7.40258 12.6667 4.8385C12.6667 2.27309 10.5773 0.19397 8 0.19397V0.19397ZM12.246 9.05247C11.9147 9.38285 11.5413 9.67011 11.1407 9.91623C13.0553 11.1595 14.0593 13.2883 14.4553 14.7896H1.53067C1.912 13.2704 2.90267 11.1389 4.846 9.90827C4.444 9.66016 4.07133 9.37025 3.74067 9.03788C0.902 11.0759 0 14.6808 0 16.1158H16C16 14.6948 15.04 11.1024 12.246 9.05247Z" fill="black"/>
</svg>
